# xmcd CD database file
#
# Track frame offsets:
#	150
#	24456
#	37668
#	56474
#	79717
#	90287
#	115626
#	132013
#	143870
#	165976
#	176205
#	196658
#	205883
#	244328
#	262950
#	291638
#
# Disc length: 4310 seconds
#
# Revision: 1
# Processed by: cddbd v1.5.1PL0 Copyright (c) Steve Scherf et al.
# Submitted via: CDex 1.51
#
DISCID=cf10d410
DTITLE=2 - Eleven Years of Screwing Around:  The Blue Suit Anniversary Album
DYEAR=1998
DGENRE=Blues
TTITLE0=Eddie Burns: Dixie Boogie
TTITLE1=Detroit Junior: Chicken Shack Boogie
TTITLE2=Howard Armstrong: Lady Be Good
TTITLE3=Sir Mack Rice: Cadillac Assembly Line (live)
TTITLE4=Queens of Harmony: He's A Mighty Good God to Know
TTITLE5=Willie D. Warren: Killing Floor
TTITLE6=Detroit Junior: Take Out The Time
TTITLE7=Honeyboy Edwards: Who May Be Your Regular Be
TTITLE8=Eddie Burns: Orange Driver (live)
TTITLE9=Big Jack Reynolds: Little Dog
TTITLE10=Mr. Bo: If Trouble Was Money
TTITLE11=Ellis Kirk: Breakup
TTITLE12=Detroit Junior: How Blue Can You Get (live)
TTITLE13=Art and Roman Griswold: I Love The Woman
TTITLE14=Harmonica Shah: Stubborn As A Mule
TTITLE15=Sir Mack Rice: Mustang Sally
EXTD=YEAR: 1998
EXTT0=
EXTT1=
EXTT2=
EXTT3=
EXTT4=
EXTT5=
EXTT6=
EXTT7=
EXTT8=
EXTT9=
EXTT10=
EXTT11=
EXTT12=
EXTT13=
EXTT14=
EXTT15=
PLAYORDER=
